<svg width="163" height="153" viewBox="0 0 163 153" fill="none" xmlns="http://www.w3.org/2000/svg">
    <path
        d="M113.414 85.2818L39.6121 66.7196C37.0642 66.0783 34.4461 67.4977 33.7635 69.889C33.081 72.2802 34.5925 74.738 37.14 75.3787L110.942 93.941C111.357 94.0452 111.772 94.0949 112.181 94.0949C114.29 94.0949 116.22 92.774 116.791 90.7713C117.474 88.3804 115.962 85.9225 113.414 85.2818Z"
        fill="black" />
    <path
        d="M118.358 67.963L44.5557 49.4008C42.0069 48.7595 39.3894 50.1789 38.7071 52.5701C38.0246 54.9613 39.5361 57.4192 42.0836 58.0599L115.886 76.6221C116.3 76.7264 116.716 76.776 117.125 76.776C119.234 76.776 121.163 75.4552 121.735 73.4524C122.417 71.0615 120.906 68.6037 118.358 67.963Z"
        fill="black" />
    <path
        d="M108.47 102.6L34.6677 84.0379C32.1196 83.3966 29.5017 84.816 28.8192 87.2073C28.1366 89.5985 29.6482 92.0563 32.1957 92.697L105.998 111.259C106.412 111.364 106.828 111.413 107.237 111.413C109.346 111.413 111.275 110.092 111.847 108.09C112.53 105.699 111.018 103.241 108.47 102.6Z"
        fill="black" />
    <path
        d="M78.926 113.731L29.7242 101.357C27.1757 100.715 24.5578 102.135 23.8756 104.526C23.193 106.917 24.7046 109.375 27.2521 110.016L76.4539 122.391C76.8681 122.495 77.2836 122.544 77.693 122.544C79.8015 122.544 81.731 121.224 82.3025 119.221C82.9854 116.83 81.4735 114.372 78.926 113.731Z"
        fill="black" />
    <path
        d="M162.926 129.059L145.236 34.8869C144.778 32.4488 142.301 30.8214 139.704 31.2511L97.9514 38.1615L82.1656 34.1913L79.7436 24.7217C83.6708 22.3213 86.2747 18.1661 86.2747 13.4482C86.2747 6.0334 79.848 0.000976562 71.9486 0.000976562C64.0491 0.000976562 57.6225 6.0334 57.6225 13.4482C57.6225 20.3905 63.2568 26.1205 70.4583 26.8225L71.6678 31.5511L32.3782 21.6692C29.8298 21.0282 27.2119 22.4477 26.5297 24.8386L0.162312 117.205C-0.165597 118.353 0.00599812 119.577 0.639531 120.606C1.27275 121.636 2.31569 122.387 3.53914 122.695L37.2488 131.173L40.6533 149.296C40.873 150.467 41.5798 151.508 42.617 152.19C43.4253 152.721 44.3826 153 45.3561 153C45.6321 153 45.9097 152.978 46.1851 152.932L92.9729 145.188L114.243 150.538C114.649 150.64 115.065 150.691 115.479 150.691C116.31 150.691 117.134 150.487 117.866 150.09C118.963 149.496 119.763 148.517 120.091 147.368L122.089 140.369L159.053 134.251C161.65 133.822 163.384 131.497 162.926 129.059ZM67.1732 13.4482C67.1732 10.9766 69.3154 8.96579 71.9486 8.96579C74.5817 8.96579 76.7239 10.9766 76.7239 13.4482C76.7239 15.9198 74.5817 17.9306 71.9486 17.9306C69.3154 17.9306 67.1732 15.9198 67.1732 13.4482ZM136.66 40.8581L138.047 48.2463L119.78 43.6518L136.66 40.8581ZM49.2296 143.325L47.4277 133.733L71.1441 139.698L49.2296 143.325ZM10.6236 115.196L34.5189 31.4887L74.2051 41.4701L76.8557 51.8334C77.3813 53.889 79.338 55.2702 81.4952 55.2702C81.8642 55.2702 82.2392 55.2299 82.6139 55.1453C85.1783 54.5674 86.7583 52.1475 86.1423 49.7404L84.702 44.1102L135.996 57.0115L112.101 140.719L10.6236 115.196ZM124.817 130.815L142.151 70.0908L152.691 126.201L124.817 130.815Z"
        fill="black" />
</svg>