<svg width="163" height="153" viewBox="0 0 163 153" fill="none" xmlns="http://www.w3.org/2000/svg">
    <path
        d="M146.743 80.2326C148.183 78.2281 149.025 75.8148 149.025 73.2203V70.8234C149.025 63.8897 143.015 58.2485 135.628 58.2485C131.942 58.2485 128.599 59.6532 126.175 61.9219C119.901 44.4085 102.245 31.7579 81.5 31.7579C60.7547 31.7579 43.0989 44.4082 36.8253 61.9219C34.4006 59.6532 31.0582 58.2485 27.3722 58.2485C19.9853 58.2485 13.9753 63.8897 13.9753 70.8234V73.2203C13.9753 75.8148 14.8171 78.2281 16.2573 80.2326C6.98385 82.0668 0 89.805 0 99.0472V105.064C0 106.714 1.42561 108.052 3.18359 108.052H19.7383C21.4963 108.052 22.9219 106.714 22.9219 105.064C22.9219 103.414 21.4963 102.075 19.7383 102.075H6.36719V99.0472C6.36719 91.7399 12.7006 85.795 20.4855 85.795H35.5531C36.775 90.8395 38.9166 95.5598 41.806 99.7894L5.48151 133.885C0.830281 138.252 0.830281 145.356 5.48183 149.723C7.80776 151.906 10.8624 152.997 13.9177 152.997C16.973 152.997 20.0283 151.906 22.3542 149.723L42.38 130.925C43.6232 129.758 43.6232 127.866 42.38 126.699C41.1365 125.532 39.1213 125.532 37.8774 126.699L17.852 145.496C15.6824 147.533 12.1531 147.532 9.98375 145.497C7.81477 143.46 7.81477 140.147 9.98375 138.111L45.6422 104.641C54.2911 114.162 67.1563 120.211 81.5 120.211C103.89 120.211 122.68 105.476 127.447 85.795H142.515C150.299 85.795 156.633 91.7399 156.633 99.0472V102.075H126.707C124.949 102.075 123.523 103.414 123.523 105.064C123.523 106.714 124.949 108.052 126.707 108.052H159.816C161.574 108.052 163 106.714 163 105.064V99.0472C163 89.805 156.016 82.0668 146.743 80.2326ZM34.4019 73.2206C34.4019 76.8589 31.2486 79.8188 27.3722 79.8188C23.4959 79.8188 20.3425 76.8589 20.3425 73.2206V70.8237C20.3425 67.1852 23.4959 64.2253 27.3722 64.2253C31.2486 64.2253 34.4019 67.1852 34.4019 70.8237V73.2206ZM81.5 114.234C59.0305 114.234 40.75 97.0755 40.75 75.9845C40.75 54.8935 59.0305 37.7345 81.5 37.7345C103.969 37.7345 122.25 54.8935 122.25 75.9845C122.25 97.0755 103.969 114.234 81.5 114.234ZM142.657 73.2206C142.657 76.8589 139.504 79.8188 135.627 79.8188C131.751 79.8188 128.598 76.8589 128.598 73.2206V70.8237C128.598 67.1852 131.751 64.2253 135.627 64.2253C139.504 64.2253 142.657 67.1852 142.657 70.8237V73.2206Z"
        fill="black" />
    <path
        d="M81.5 43.7111C62.5411 43.7111 47.1172 58.1887 47.1172 75.9845C47.1172 85.2213 51.2737 93.5631 57.9217 99.4515C58.0353 99.5668 58.1573 99.6756 58.291 99.7742C64.4117 105.04 72.5627 108.258 81.5 108.258C90.4373 108.258 98.5883 105.04 104.709 99.7742C104.843 99.6759 104.965 99.5668 105.078 99.4515C111.726 93.5631 115.883 85.2213 115.883 75.9845C115.883 58.189 100.459 43.7111 81.5 43.7111ZM81.5 102.281C74.9536 102.281 68.9251 100.162 64.1504 96.6174C67.5329 90.6097 74.1249 86.8299 81.5 86.8299C88.8751 86.8299 95.4671 90.6097 98.8496 96.6174C94.0749 100.162 88.0464 102.281 81.5 102.281ZM74.7912 74.5561V72.2345C74.7912 68.7621 77.8007 65.9373 81.5 65.9373C85.1993 65.9373 88.2088 68.7621 88.2088 72.2345V74.5561C88.2088 78.0285 85.1993 80.8533 81.5 80.8533C77.8007 80.8533 74.7912 78.0285 74.7912 74.5561ZM103.507 92.2405C100.59 87.8725 96.3212 84.5414 91.3249 82.6421C93.3461 80.4807 94.576 77.6517 94.576 74.5564V72.2348C94.576 65.4672 88.7099 59.961 81.5 59.961C74.2901 59.961 68.424 65.4672 68.424 72.2348V74.5564C68.424 77.6517 69.6535 80.4807 71.6751 82.6421C66.6788 84.5417 62.4102 87.8725 59.4934 92.2405C55.7317 87.7634 53.4844 82.1159 53.4844 75.9845C53.4844 61.4845 66.0522 49.6876 81.5 49.6876C96.9478 49.6876 109.516 61.4845 109.516 75.9845C109.516 82.1159 107.268 87.7634 103.507 92.2405Z"
        fill="black" />
    <path
        d="M50.8961 118.706C50.3039 118.15 49.4825 117.831 48.6453 117.831C47.808 117.831 46.9866 118.15 46.3945 118.706C45.8026 119.262 45.4617 120.033 45.4617 120.819C45.4617 121.605 45.8023 122.376 46.3945 122.932C46.9866 123.487 47.808 123.807 48.6453 123.807C49.4825 123.807 50.3039 123.487 50.8961 122.932C51.4879 122.376 51.8289 121.605 51.8289 120.819C51.8289 120.033 51.4882 119.262 50.8961 118.706Z"
        fill="black" />
    <path
        d="M81.5645 0.00299072C79.8065 0.00299072 78.3809 1.34114 78.3809 2.99127V13.1586C78.3809 14.809 79.8065 16.1469 81.5645 16.1469C83.3224 16.1469 84.748 14.8087 84.748 13.1586V2.99127C84.748 1.34114 83.3224 0.00299072 81.5645 0.00299072Z"
        fill="black" />
    <path
        d="M83.8142 20.8997C83.2224 20.3439 82.4039 20.0242 81.5637 20.0242C80.7261 20.0242 79.9051 20.3436 79.3129 20.8997C78.7208 21.4559 78.3801 22.2265 78.3801 23.0125C78.3801 23.7984 78.7205 24.5693 79.3129 25.1249C79.9051 25.6807 80.7261 26.0007 81.5637 26.0007C82.4042 26.0007 83.2224 25.681 83.8142 25.1249C84.4064 24.5693 84.7473 23.7984 84.7473 23.0125C84.7473 22.2265 84.4067 21.4556 83.8142 20.8997Z"
        fill="black" />
    <path
        d="M108.554 11.7245C107.31 10.5579 105.295 10.5579 104.051 11.7245L98.4558 16.9767C97.2126 18.1436 97.2126 20.0358 98.4558 21.203C99.0779 21.7864 99.8923 22.0783 100.707 22.0783C101.522 22.0783 102.337 21.7864 102.958 21.203L108.554 15.9508C109.797 14.7839 109.797 12.8917 108.554 11.7245Z"
        fill="black" />
    <path
        d="M64.5977 17.0129L58.9484 11.7102C57.7049 10.5435 55.6897 10.5435 54.4458 11.7102C53.2026 12.8771 53.2026 14.7693 54.4458 15.9365L60.0954 21.2392C60.7172 21.8225 61.5319 22.1145 62.3465 22.1145C63.1612 22.1145 63.9759 21.8225 64.5977 21.2392C65.8409 20.0723 65.8409 18.1801 64.5977 17.0129Z"
        fill="black" />
</svg>