<svg width="163" height="153" viewBox="0 0 163 153" fill="none" xmlns="http://www.w3.org/2000/svg">
    <path
        d="M35.2257 20.3205H34.942C36.2008 18.4071 36.9292 16.1554 36.9292 13.7462V12.5509C36.9292 5.63028 30.9311 0 23.5583 0C16.1855 0 10.1874 5.63028 10.1874 12.5509V13.7462C10.1874 16.1554 10.9158 18.4071 12.1745 20.3205H11.8909C5.33436 20.3205 0 25.3274 0 31.4819V39.8297C0 41.4802 1.42559 42.818 3.18355 42.818H43.933C45.6909 42.818 47.1165 41.4802 47.1165 39.8297V31.4819C47.1165 25.3274 41.7822 20.3205 35.2257 20.3205ZM16.5545 13.7462V12.5509C16.5545 8.92579 19.6963 5.97662 23.5583 5.97662C27.4202 5.97662 30.5621 8.92579 30.5621 12.5509V13.7462C30.5621 17.3714 27.4202 20.3205 23.5583 20.3205C19.6963 20.3205 16.5545 17.3714 16.5545 13.7462ZM40.7494 36.8414H6.3671V31.4819C6.3671 28.6229 8.84486 26.2971 11.8909 26.2971H35.226C38.2717 26.2971 40.7498 28.6229 40.7498 31.4819V36.8414H40.7494Z"
        fill="black" />
    <path
        d="M84.0024 15.3945L77.5271 14.513L74.6297 9.00609C73.9997 7.80898 72.7257 7.06519 71.3029 7.06519C71.3026 7.06519 71.302 7.06519 71.3017 7.06519C69.8786 7.06548 68.6036 7.81017 67.9752 9.00759L65.081 14.5159L58.6069 15.4005C57.1988 15.5926 56.0515 16.5011 55.6118 17.7714C55.1725 19.0417 55.5326 20.4101 56.5516 21.3418L61.2384 25.6277L60.1338 31.6814C59.8937 32.9978 60.4598 34.3027 61.6112 35.0875C62.2613 35.5306 63.0222 35.756 63.7878 35.7557C64.3781 35.7557 64.9708 35.6221 65.5187 35.3513L71.3093 32.4921L77.1014 35.3487C78.3609 35.9696 79.8584 35.868 81.0089 35.0824C82.1595 34.2971 82.7249 32.9915 82.4839 31.6754L81.3763 25.6226L86.0596 21.335C87.0787 20.4026 87.4384 19.0346 86.9985 17.7642C86.5585 16.4939 85.4105 15.5861 84.0024 15.3945ZM75.9299 22.2604C75.057 23.0604 74.6587 24.2118 74.8647 25.3426L75.2973 27.7078L73.0341 26.5917C71.953 26.0586 70.6611 26.0592 69.5809 26.5926L67.3184 27.7099L67.7501 25.3435C67.9557 24.2142 67.5568 23.0625 66.682 22.2619L64.8505 20.5873L67.3814 20.2415C68.5893 20.076 69.6332 19.3639 70.1737 18.3356L71.3045 16.1834L72.4369 18.3356C72.9772 19.3627 74.021 20.0742 75.2308 20.2401L77.7611 20.5846L75.9299 22.2604Z"
        fill="black" />
    <path
        d="M121.911 15.3945L115.435 14.513L112.538 9.00609C111.908 7.80898 110.634 7.06519 109.211 7.06519C109.211 7.06519 109.21 7.06519 109.21 7.06519C107.787 7.06548 106.512 7.81017 105.883 9.00759L102.989 14.5159L96.5159 15.4005C95.1078 15.5923 93.9598 16.5008 93.5205 17.7711C93.0808 19.0414 93.4409 20.4098 94.46 21.3418L99.1468 25.6277L98.0427 31.679C97.8017 32.9957 98.3671 34.3013 99.5186 35.0866C100.169 35.53 100.93 35.7557 101.696 35.7557C102.286 35.7557 102.879 35.6221 103.427 35.3513L109.218 32.4921L115.01 35.3487C116.269 35.9696 117.767 35.868 118.917 35.0824C120.068 34.2971 120.633 32.9915 120.392 31.6757L119.285 25.6226L123.968 21.3353C124.987 20.4029 125.346 19.0349 124.906 17.7645C124.467 16.4942 123.319 15.5861 121.911 15.3945ZM113.841 22.2581C112.965 23.0595 112.565 24.2139 112.774 25.3429L113.206 27.7084L110.943 26.592C109.86 26.0583 108.568 26.0592 107.49 26.5929L105.227 27.7102L105.659 25.3438C105.864 24.2127 105.465 23.0601 104.591 22.2622L102.759 20.5876L105.29 20.2418C106.498 20.0763 107.542 19.3642 108.082 18.3359L109.213 16.1837L110.346 18.3359C110.886 19.3627 111.93 20.0745 113.14 20.2404L115.67 20.5849L113.841 22.2581Z"
        fill="black" />
    <path
        d="M162.815 17.7645C162.376 16.4942 161.227 15.5861 159.819 15.3945L153.344 14.513L150.447 9.00609C149.817 7.80898 148.542 7.06519 147.12 7.06519C145.697 7.06519 144.423 7.80928 143.792 9.00759L140.898 14.5159L134.424 15.4005C133.016 15.5926 131.869 16.5011 131.429 17.7714C130.99 19.0417 131.35 20.4101 132.369 21.3418L137.055 25.6277L135.951 31.6811C135.711 32.9972 136.277 34.3022 137.428 35.0869C138.078 35.53 138.839 35.7554 139.605 35.7554C140.195 35.7554 140.788 35.6218 141.336 35.351L147.127 32.4918L152.918 35.3478C154.178 35.9696 155.674 35.8674 156.824 35.083C157.976 34.2986 158.542 32.9933 158.301 31.6751L157.194 25.6223L161.877 21.335C162.896 20.4032 163.255 19.0349 162.815 17.7645ZM151.75 22.2581C150.873 23.0595 150.474 24.2139 150.682 25.3429L151.115 27.7081L148.851 26.5917C147.768 26.058 146.476 26.0589 145.398 26.5926L143.135 27.7099L143.567 25.3435C143.773 24.2124 143.373 23.0598 142.499 22.2619L140.668 20.5873L143.198 20.2415C144.406 20.076 145.45 19.3639 145.991 18.3356L147.122 16.1834L148.254 18.3356C148.794 19.3624 149.838 20.0742 151.048 20.2401L153.578 20.5846L151.75 22.2581Z"
        fill="black" />
    <path
        d="M35.2257 75.4105H34.942C36.2008 73.4971 36.9292 71.2454 36.9292 68.8363V67.6409C36.9292 60.7203 30.9311 55.09 23.5583 55.09C16.1855 55.09 10.1874 60.7203 10.1874 67.6409V68.8363C10.1874 71.2454 10.9158 73.4971 12.1745 75.4105H11.8909C5.33436 75.4105 0 80.4175 0 86.5719V94.9197C0 96.5702 1.42559 97.9081 3.18355 97.9081H10.8241C12.582 97.9081 14.0076 96.5702 14.0076 94.9197C14.0076 93.2693 12.582 91.9314 10.8241 91.9314H6.3671V86.5719C6.3671 83.713 8.84486 81.3872 11.8909 81.3872H35.226C38.2717 81.3872 40.7498 83.713 40.7498 86.5719V91.9314H36.2928C34.5348 91.9314 33.1092 93.2693 33.1092 94.9197C33.1092 96.5702 34.5348 97.9081 36.2928 97.9081H43.9333C45.6913 97.9081 47.1169 96.5702 47.1169 94.9197V86.5719C47.1165 80.4175 41.7822 75.4105 35.2257 75.4105ZM16.5545 68.8363V67.6409C16.5545 64.0158 19.6963 61.0667 23.5583 61.0667C27.4202 61.0667 30.5621 64.0158 30.5621 67.6409V68.8363C30.5621 72.4614 27.4202 75.4105 23.5583 75.4105C19.6963 75.4105 16.5545 72.4614 16.5545 68.8363Z"
        fill="black" />
    <path
        d="M84.0024 70.484L77.5271 69.6025L74.6297 64.0956C73.9997 62.8985 72.7256 62.1547 71.3029 62.1547C71.3026 62.1547 71.302 62.1547 71.3013 62.1547C69.8783 62.1553 68.6036 62.9 67.9752 64.0971L65.081 69.6052L58.606 70.49C57.1982 70.6825 56.0512 71.5909 55.6118 72.8609C55.1725 74.131 55.5326 75.499 56.5516 76.4314L61.2384 80.7172L60.1338 86.7709C59.8937 88.0873 60.4598 89.3923 61.6112 90.177C62.2616 90.6202 63.0222 90.8452 63.7878 90.8452C64.3781 90.8452 64.9708 90.7116 65.519 90.4409L71.3093 87.5814L77.1014 90.4382C78.3608 91.0591 79.8584 90.9572 81.0089 90.1716C82.1598 89.3863 82.7248 88.0807 82.4839 86.7649L81.3763 80.7121L86.0603 76.4242C87.079 75.4915 87.4384 74.1235 86.9981 72.8535C86.5585 71.5837 85.4102 70.6756 84.0024 70.484ZM75.9299 77.35C75.0573 78.1496 74.6587 79.3011 74.8647 80.4321L75.2973 82.7971L73.0341 81.6809C71.9536 81.1481 70.6637 81.1478 69.5806 81.6818L67.3184 82.7992L67.7501 80.433C67.9557 79.3046 67.5572 78.1532 66.682 77.3512L64.8505 75.6765L67.3814 75.3308C68.5893 75.1652 69.6331 74.4531 70.1737 73.4248L71.3045 71.2724L72.4363 73.4233C72.9771 74.4519 74.022 75.1643 75.2308 75.3287L77.7611 75.6732L75.9299 77.35Z"
        fill="black" />
    <path
        d="M121.911 70.484L115.436 69.6025L112.538 64.0956C111.908 62.8985 110.634 62.1547 109.211 62.1547C109.211 62.1547 109.21 62.1547 109.21 62.1547C107.787 62.1553 106.512 62.9 105.884 64.0971L102.989 69.6052L96.5151 70.49C95.1073 70.6825 93.9599 71.5909 93.5203 72.8609C93.081 74.131 93.441 75.499 94.4601 76.4314L99.1469 80.7172L98.0428 86.7688C97.8018 88.0855 98.3676 89.3911 99.5187 90.1761C100.169 90.6196 100.93 90.8452 101.696 90.8452C102.286 90.8452 102.879 90.7113 103.427 90.4409L109.218 87.5814L115.01 90.4382C116.269 91.0591 117.767 90.9572 118.917 90.1716C120.068 89.3863 120.633 88.0807 120.392 86.7649L119.285 80.7118L123.968 76.4239C124.987 75.4913 125.347 74.1232 124.906 72.8532C124.467 71.5837 123.319 70.6756 121.911 70.484ZM113.842 77.3476C112.965 78.1491 112.566 79.3031 112.774 80.4324L113.206 82.7977L110.943 81.6812C109.862 81.1481 108.571 81.1481 107.49 81.6821L105.227 82.7995L105.659 80.433C105.865 79.3028 105.465 78.1506 104.591 77.3512L102.759 75.6765L105.29 75.3308C106.498 75.1652 107.542 74.4531 108.082 73.4248L109.213 71.2724L110.345 73.4233C110.886 74.4519 111.931 75.1643 113.14 75.3287L115.67 75.6732L113.842 77.3476Z"
        fill="black" />
    <path
        d="M35.2257 130.503H34.942C36.2008 128.589 36.9292 126.337 36.9292 123.928V122.733C36.9292 115.812 30.9311 110.182 23.5583 110.182C16.1855 110.182 10.1874 115.812 10.1874 122.733V123.928C10.1874 126.337 10.9158 128.589 12.1745 130.503H11.8909C5.33436 130.503 0 135.509 0 141.664V150.012C0 151.662 1.42559 153 3.18355 153H43.933C45.6909 153 47.1165 151.662 47.1165 150.012V141.664C47.1165 135.509 41.7822 130.503 35.2257 130.503ZM16.5545 123.928V122.733C16.5545 119.108 19.6963 116.159 23.5583 116.159C27.4202 116.159 30.5621 119.108 30.5621 122.733V123.928C30.5621 127.553 27.4202 130.503 23.5583 130.503C19.6963 130.503 16.5545 127.553 16.5545 123.928ZM40.7494 147.023H6.3671V141.664C6.3671 138.805 8.84486 136.479 11.8909 136.479H35.226C38.2717 136.479 40.7498 138.805 40.7498 141.664V147.023H40.7494Z"
        fill="black" />
    <path
        d="M84.0024 125.576L77.5271 124.694L74.6297 119.188C73.9997 117.99 72.7256 117.247 71.3029 117.247C71.3026 117.247 71.302 117.247 71.3013 117.247C69.8783 117.247 68.6036 117.992 67.9752 119.189L65.081 124.697L58.606 125.582C57.1982 125.774 56.0512 126.683 55.6118 127.953C55.1725 129.223 55.5326 130.591 56.5516 131.523L61.2384 135.809L60.1338 141.863C59.8937 143.179 60.4598 144.484 61.6112 145.269C62.2613 145.712 63.0222 145.937 63.7878 145.937C64.3781 145.937 64.9708 145.804 65.519 145.533L71.3093 142.673L77.1014 145.53C78.3608 146.151 79.8584 146.049 81.0089 145.264C82.1598 144.478 82.7248 143.173 82.4839 141.857L81.3763 135.804L86.0603 131.516C87.0787 130.584 87.4381 129.216 86.9984 127.946C86.5591 126.676 85.4111 125.768 84.0024 125.576ZM75.9299 132.442C75.0573 133.242 74.6587 134.393 74.8647 135.524L75.2973 137.889L73.0341 136.773C71.9533 136.24 70.6633 136.241 69.5806 136.774L67.3184 137.891L67.7501 135.525C67.9557 134.396 67.5568 133.244 66.682 132.444L64.8505 130.769L67.3786 130.424C68.5877 130.259 69.6325 129.547 70.1737 128.517L71.3045 126.365L72.4369 128.517C72.9778 129.545 74.0223 130.257 75.2308 130.421L77.7611 130.766L75.9299 132.442Z"
        fill="black" />
    <path
        d="M25.8086 97.0329C26.4007 96.477 26.7417 95.706 26.7417 94.9201C26.7417 94.1342 26.401 93.3632 25.8086 92.8073C25.2167 92.2515 24.3954 91.9318 23.5581 91.9318C22.7208 91.9318 21.8994 92.2515 21.3073 92.8073C20.7152 93.3632 20.3745 94.1342 20.3745 94.9201C20.3745 95.706 20.7148 96.477 21.3073 97.0329C21.8994 97.5887 22.7208 97.9085 23.5581 97.9085C24.3954 97.9085 25.2167 97.5887 25.8086 97.0329Z"
        fill="black" />
</svg>