<svg width="512" height="512" viewBox="0 0 512 512" fill="none" xmlns="http://www.w3.org/2000/svg">
<g clip-path="url(#clip0)">
<path d="M500.232 11.7661C484.544 -3.92089 459.014 -3.92189 443.323 11.7661L340.459 114.63C298.743 93.1581 246.173 99.8401 211.263 134.752L135.7 210.314C100.79 245.224 94.106 297.795 115.578 339.51L11.767 443.323C-3.92299 459.013 -3.92299 484.543 11.767 500.232C19.613 508.076 29.917 511.998 40.221 511.998C50.525 511.998 60.831 508.076 68.675 500.232L172.462 396.445C187.976 404.458 205.286 408.729 223.276 408.729C252.924 408.729 280.769 397.211 301.683 376.297C306.921 371.059 306.921 362.566 301.683 357.328L263.744 319.389C261.229 316.874 257.817 315.46 254.259 315.46C250.702 315.46 247.289 316.874 244.774 319.389C243.167 320.995 241.399 322.375 239.524 323.565C244.314 309.496 241.115 293.283 229.915 282.083C218.715 270.884 202.502 267.685 188.433 272.475C189.621 270.6 191.003 268.831 192.609 267.225L268.171 191.663C269.559 190.275 271.054 189.061 272.622 188C267.616 202.169 270.767 218.603 282.081 229.918C289.927 237.762 300.231 241.684 310.535 241.684C315.098 241.684 319.66 240.911 324.009 239.373C322.936 240.953 321.715 242.447 320.336 243.826C317.821 246.341 316.407 249.753 316.407 253.311C316.407 256.868 317.821 260.281 320.336 262.796L358.276 300.735C363.514 305.973 372.007 305.972 377.245 300.735C412.155 265.825 418.839 213.254 397.367 171.539L500.231 68.6741C515.922 52.9861 515.922 27.4571 500.232 11.7661ZM253.147 346.729L272.48 366.062C258.268 376.35 241.211 381.903 223.278 381.903C212.64 381.903 202.311 379.946 192.702 376.208L214.487 354.423C217.37 354.867 220.306 355.1 223.28 355.1C233.992 355.101 244.251 352.185 253.147 346.729ZM191.977 301.052C194.591 298.438 198.026 297.13 201.462 297.13C204.897 297.13 208.332 298.438 210.947 301.052C216.177 306.282 216.177 314.791 210.947 320.021L49.706 481.262C44.477 486.492 35.967 486.492 30.737 481.262C25.507 476.032 25.507 467.523 30.737 462.293L191.977 301.052ZM249.202 172.692L173.64 248.254C162.844 259.05 156.897 273.422 156.897 288.722C156.897 291.696 157.13 294.631 157.574 297.514L135.817 319.271C124.106 289.14 130.382 253.572 154.668 229.284L230.231 153.722C246.618 137.335 268.143 129.142 289.669 129.142C300.047 129.142 310.421 131.055 320.221 134.868L298.446 156.645C281.024 153.957 262.594 159.3 249.202 172.692ZM367.005 271.526L347.676 252.199C353.131 243.303 356.047 233.045 356.047 222.33C356.047 219.356 355.812 216.42 355.37 213.537L377.116 191.791C387.272 217.916 383.918 248.122 367.005 271.526ZM481.263 49.7051L320.021 210.947C314.792 216.177 306.282 216.177 301.052 210.947C295.822 205.717 295.822 197.206 301.052 191.976L462.292 30.7371C467.523 25.5071 476.033 25.5061 481.263 30.7371C486.493 35.9671 486.493 44.4761 481.263 49.7051Z" fill="black"/>
<path d="M420.56 400.641L376.93 357.011C371.692 351.773 363.199 351.773 357.961 357.011C352.723 362.249 352.722 370.742 357.961 375.98L401.591 419.61C404.211 422.23 407.643 423.539 411.076 423.539C414.508 423.539 417.942 422.229 420.561 419.61C425.798 414.373 425.799 405.879 420.56 400.641Z" fill="black"/>
<path d="M476.759 327.83L410.246 318.226C402.916 317.169 396.111 322.251 395.053 329.585C393.995 336.917 399.08 343.719 406.411 344.778L472.924 354.382C473.575 354.476 474.22 354.522 474.858 354.522C481.417 354.522 487.153 349.705 488.117 343.024C489.175 335.691 484.09 328.889 476.759 327.83Z" fill="black"/>
<path d="M355.33 471.974L345.726 405.462C344.668 398.13 337.86 393.048 330.533 394.103C323.201 395.163 318.116 401.963 319.174 409.296L328.778 475.808C329.742 482.489 335.478 487.306 342.037 487.306C342.675 487.306 343.322 487.26 343.971 487.167C351.304 486.108 356.389 479.307 355.33 471.974Z" fill="black"/>
</g>
<defs>
<clipPath id="clip0">
<rect width="511.999" height="511.999" fill="white"/>
</clipPath>
</defs>
</svg>
